<svg id="Layer_1" viewBox="0 0 128 128" xmlns="http://www.w3.org/2000/svg"><title></title><path d="M16.1,71.35a1,1,0,0,0,.71-.29l1.52-1.52a1,1,1,1,2,3-1.81,1,1,0,0,0-1.42,0L15.4,69.65a1,1,0,0,0,0,1.41A1,1,0,0,0,16.1,71.35Z"></path><path d="M9.31,77.15a1,1,0,0,0,.71.29,1,1,0,0,0,.71-.29l1.51-1.52a1,1,0,0,0,0-1.42,1,1,0,0,0-1.41,0L9.31,75.73A1,1,0,0,0,9.31,77.15Z"></path><path d="M9.31,68.13a1,1,0,0,0,0,1.41l1.52,1.52a1,1,0,0,0,1.41,0,1,1,1,1,2,3-1.81l-1.51-1.52A1,1,0,0,0,9.31,68.13Z"></path><path d="M15.4,75.63l1.51,1.52a1,1,0,0,0,1.42,0,1,1,0,0,0,0-1.42l-1.52-1.52a1,1,0,1,0-1.41,1.42Z"></path><path d="M100.24,30a1,1,0,0,0,.71-.29l1.52-1.52a1,1,0,0,0-1.42-1.41l-1.51,1.51a1,1,0,0,0,.7,1.71Z"></path><path d="M93.45,35.82a1,1,0,0,0,1.42,0l1.51-1.52A1,1,0,0,0,95,32.89l-1.52,1.52A1,1,0,0,0,93.45,35.82Z"></path><path d="M95,29.74a1,1,0,0,0,.71.29,1,1,0,0,0,.7-1.71l-1.51-1.51a1,1,0,1,0-1.42,1.41Z"></path><path d="M99.54,34.3l1.51,1.52a1,1,0,0,0,.71.3,1,1,0,0,0,.71-1.71L101,32.89a1,1,0,0,0-1.41,1.41Z"></path><path d="M36.47,27.12a1,1,0,0,0,.71-.29l1.52-1.52a1,1,1,1,2,3-1.81,1,1,0,0,0-1.42,0l-1.52,1.52a1,1,0,0,0,.71,1.7Z"></path><path d="M29.68,32.92a1,1,0,0,0,.71.29,1,1,0,0,0,.7-.29l1.52-1.52a1,1,0,0,0,0-1.42,1,1,0,0,0-1.41,0L29.68,31.5A1,1,0,0,0,29.68,32.92Z"></path><path d="M31.2,26.83a1,1,0,0,0,1.41,0,1,1,1,1,2,3-1.81L31.09,23.9a1,1,0,1,0-1.41,1.41Z"></path><path d="M35.76,31.4l1.52,1.52a1,1,0,0,0,1.42,0,1,1,0,0,0,0-1.42L37.18,30a1,1,0,1,0-1.42,1.42Z"></path><path d="M102.22,97.83a1.2,1.2,0,1,0,1.2-1.2A1.2,1.2,0,0,0,102.22,97.83Z"></path><path d="M116.52,36.84a1.2,1.2,0,1,0-1.2,1.2A1.2,1.2,0,0,0,116.52,36.84Z"></path><path d="M92.17,69.82A1.2,1.2,0,1,0,91,71,1.2,1.2,0,0,0,92.17,69.82Z"></path><path d="M85.84,23.5a1.2,1.2,0,1,0-1.19-1.19A1.19,1.19,0,0,0,85.84,23.5Z"></path><path d="M38.1,41.76A1.2,1.2,0,1,0,39.3,43,1.2,1.2,0,0,0,38.1,41.76Z"></path><path d="M22.42,84.27a1.2,1.2,0,1,0-1.2-1.19A1.19,1.19,0,0,0,22.42,84.27Z"></path><path d="M13.42,95.7a1.2,1.2,0,1,0,1.2-1.2A1.2,1.2,0,0,0,13.42,95.7Z"></path><path d="M17,33.71a1.2,1.2,0,1,0-1.2,1.2A1.2,1.2,0,0,0,17,33.71Z"></path><path d="M15.36,88.6a1,1,0,0,0,1,1,39.45,39.45,0,0,1,19.47,5.48,1,1,0,0,0,.51.13,1,1,0,0,0,.86-.49,1,1,0,0,0-.35-1.37A41.57,41.57,0,0,0,16.36,87.6,1,1,0,0,0,15.36,88.6Z"></path><path d="M48,112.31a1,1,0,1,0,2,0c0-5.44-2.76-10.71-8-15.24a1,1,0,0,0-1.41.1,1,1,0,0,0,.1,1.41C44.07,101.47,48,106.19,48,112.31Z"></path><path d="M118.35,88.6a1,1,0,0,0-1-1,37.14,37.14,0,0,0-4.17.25,1,1,0,0,0,.12,2h.11a33.18,33.18,0,0,1,3.94-.24A1,1,0,0,0,118.35,88.6Z"></path><path d="M106.17,90.34a1,1,0,0,0-1.27-.64c-10.57,3.52-21.23,11.88-21.23,22.61a1,1,0,0,0,2,0c0-9.73,10-17.42,19.86-20.71A1,1,0,0,0,106.17,90.34Z"></path><path d="M22.56,72.29a1,1,0,1,0-.29,2,38.17,38.17,0,0,1,32.57,37.62,1,1,0,0,0,2,0A40.16,40.16,0,0,0,22.56,72.29Z"></path><path d="M76.87,111.88a1,1,0,0,0,2,0,38,38,0,0,1,38-38,1,1,0,0,0,0-2A40,40,0,0,0,76.87,111.88Z"></path><path d="M68.86,111.88a1,1,0,0,0,2,0c0-23.5,10.83-44.7,27-52.75a1,1,0,0,0-.89-1.79C80.13,65.72,68.86,87.64,68.86,111.88Z"></path><path d="M32.2,56.47a1,1,0,0,0,.58,1.29c17.71,6.69,30.07,28.94,30.07,54.12a1,1,0,0,0,2,0c0-26-12.89-49-31.36-56A1,1,0,0,0,32.2,56.47Z"></path><path d="M66.85,63.73a1,1,0,0,0,1-1V40.05a1,1,0,0,0-2,0V62.73A1,1,0,0,0,66.85,63.73Z"></path><path d="M65.85,74a1,1,0,1,0,2,0V68.3a1,1,0,1,0-2,0Z"></path><path d="M50.51,46.86a1.12,1.12,0,0,0,.35-.06,1,1,0,0,0,.59-1.28l-2.6-7a1,1,0,1,0-1.88.69l2.6,7A1,1,0,0,0,50.51,46.86Z"></path><path d="M52.66,51.68a1,1,0,0,0-.6,1.28l6.25,16.92a1,1,0,0,0,.94.66.91.91,0,0,0,.35-.07,1,1,0,0,0,.59-1.28L53.94,52.27A1,1,0,0,0,52.66,51.68Z"></path><path d="M62.55,75.59a1,1,0,0,0-1.88.69l2.74,7.41a1,1,0,0,0,.93.65,1,1,0,0,0,.35-.06A1,1,0,0,0,65.28,83Z"></path><path d="M84.5,42.35a1,1,0,0,0,.34.06,1,1,0,0,0,.94-.66l1-2.58a1,1,0,1,0-1.88-.69l-1,2.58A1,1,0,0,0,84.5,42.35Z"></path><path d="M82.31,45.38,76.58,60.91a1,1,0,0,0,.59,1.28.87.87,0,0,0,.35.07,1,1,0,0,0,.94-.66l5.73-15.53a1,1,0,0,0-1.88-.69Z"></path><path d="M71.44,78.73a1,1,0,0,0,.94-.66l3.84-10.42A1,1,0,0,0,74.35,67L70.5,77.38a1,1,0,0,0,.59,1.28A.87.87,0,0,0,71.44,78.73Z"></path><path d="M54.8,29.8a1,1,0,0,0,.83.77l5.72.87-.42,5.78a1,1,0,0,0,1.67.8l4.26-3.93L71.11,38a1,1,0,0,0,.68.27,1,1,0,0,0,.43-.1,1,1,0,0,0,.56-1l-.42-5.78,5.73-.87a1,1,0,0,0,.41-1.82l-4.78-3.27,2.89-5A1,1,0,0,0,75.45,19L69.91,20.7l-2.12-5.38a1,1,0,0,0-1.86,0L63.8,20.7,58.26,19a1,1,0,0,0-1.16,1.45l2.89,5-4.78,3.27A1,1,0,0,0,54.8,29.8Zm7.08-3.19a1,1,0,0,0,.3-1.32L60.1,21.66l4,1.23a1,1,0,0,0,1.22-.59l1.54-3.89,1.53,3.89a1,1,0,0,0,1.22.59l4-1.23-2.08,3.63a1,1,0,0,0,.3,1.32L75.28,29l-4.13.63a1,1,0,0,0-.85,1.07l.31,4.17L67.54,32a1,1,0,0,0-.68-.27,1,1,0,0,0-.68.27l-3.07,2.84.3-4.17a1,1,0,0,0-.85-1.07L58.43,29Z"></path><path d="M94.92,53.94a1,1,0,0,0,.75.84l5.63,1.37-.93,5.72a1,1,0,0,0,.47,1,1,1,0,0,0,1.13-.07l4.58-3.54,3.89,4.29a1,1,0,0,0,.74.33,1,1,0,0,0,.35-.07,1,1,0,0,0,.65-.92l.09-5.79,5.78-.36a1,1,0,0,0,.57-1.77l-4.47-3.68,3.31-4.75a1,1,0,0,0,0-1.13,1,1,0,0,0-1-.42l-5.67,1.2-1.64-5.55a1,1,0,0,0-1.85-.17l-2.6,5.18-5.36-2.18A1,1,0,0,0,98,44.84l2.43,5.25-5,2.84A1,1,0,0,0,94.92,53.94Zm7.33-2.55a1,1,0,0,0,.42-1.3l-1.76-3.79,3.88,1.57a1,1,0,0,0,1.27-.48l1.87-3.74,1.19,4a1,1,0,0,0,1.16.7l4.09-.87L112,50.92a1,1,0,0,0,.18,1.34l3.23,2.66-4.17.26a1,1,0,0,0-.94,1l-.06,4.18-2.81-3.1a1,1,0,0,0-.74-.33,1,1,0,0,0-.61.21l-3.31,2.56.67-4.13a1,1,0,0,0-.75-1.13l-4.06-1Z"></path><path d="M11,53.39a1,1,0,0,0,.87.72l5.76.56-.1,5.79a1,1,0,0,0,.61.94,1.09,1.09,0,0,0,.39.08,1,1,0,0,0,.71-.3l4-4.16,4.47,3.69a1,1,0,0,0,1.12.1,1,1,0,0,0,.5-1l-.73-5.74,5.66-1.19a1,1,0,0,0,.32-1.83l-4.95-3,2.6-5.17a1,1,0,0,0-.14-1.11,1,1,0,0,0-1.1-.28l-5.43,2L23.2,38.22a1,1,0,0,0-1.86.1l-1.82,5.5L13.9,42.43a1,1,0,0,0-1.06.39,1,1,0,0,0,0,1.12L16,48.8l-4.59,3.53A1,1,0,0,0,11,53.39Zm6.9-3.57a1,1,0,0,0,.22-1.34L15.87,45l4.06,1a1,1,0,0,0,1.19-.66l1.32-4,1.75,3.8a1,1,0,0,0,1.25.52l3.93-1.45L27.49,48a1,1,0,0,0,.37,1.3l3.57,2.17-4.09.86a1,1,0,0,0-.78,1.11l.53,4.14-3.22-2.66a1,1,0,0,0-1.36.07L19.6,58l.08-4.18a1,1,0,0,0-.91-1l-4.16-.4Z"></path></svg>